<svg id="visual" viewBox="0 0 1000 800" width="1000" height="800" xmlns="http://www.w3.org/2000/svg" xmlns:xlink="http://www.w3.org/1999/xlink" version="1.1"><rect x="0" y="0" width="1000" height="800" fill="#001220"></rect><path d="M0 581L23.8 567.2C47.7 553.3 95.3 525.7 143 513.7C190.7 501.7 238.3 505.3 286 506.5C333.7 507.7 381.3 506.3 428.8 505.3C476.3 504.3 523.7 503.7 571.2 514.8C618.7 526 666.3 549 714 560.5C761.7 572 809.3 572 857 559.8C904.7 547.7 952.3 523.3 976.2 511.2L1000 499L1000 801L976.2 801C952.3 801 904.7 801 857 801C809.3 801 761.7 801 714 801C666.3 801 618.7 801 571.2 801C523.7 801 476.3 801 428.8 801C381.3 801 333.7 801 286 801C238.3 801 190.7 801 143 801C95.3 801 47.7 801 23.8 801L0 801Z" fill="#fa7268"></path><path d="M0 583L23.8 587.3C47.7 591.7 95.3 600.3 143 590.5C190.7 580.7 238.3 552.3 286 545.3C333.7 538.3 381.3 552.7 428.8 567.5C476.3 582.3 523.7 597.7 571.2 599.3C618.7 601 666.3 589 714 575.3C761.7 561.7 809.3 546.3 857 538C904.7 529.7 952.3 528.3 976.2 527.7L1000 527L1000 801L976.2 801C952.3 801 904.7 801 857 801C809.3 801 761.7 801 714 801C666.3 801 618.7 801 571.2 801C523.7 801 476.3 801 428.8 801C381.3 801 333.7 801 286 801C238.3 801 190.7 801 143 801C95.3 801 47.7 801 23.8 801L0 801Z" fill="#ef5f67"></path><path d="M0 628L23.8 627.3C47.7 626.7 95.3 625.3 143 632.7C190.7 640 238.3 656 286 664.7C333.7 673.3 381.3 674.7 428.8 664.3C476.3 654 523.7 632 571.2 630.2C618.7 628.3 666.3 646.7 714 644.2C761.7 641.7 809.3 618.3 857 619.8C904.7 621.3 952.3 647.7 976.2 660.8L1000 674L1000 801L976.2 801C952.3 801 904.7 801 857 801C809.3 801 761.7 801 714 801C666.3 801 618.7 801 571.2 801C523.7 801 476.3 801 428.8 801C381.3 801 333.7 801 286 801C238.3 801 190.7 801 143 801C95.3 801 47.7 801 23.8 801L0 801Z" fill="#e34c67"></path><path d="M0 673L23.8 673.8C47.7 674.7 95.3 676.3 143 677.3C190.7 678.3 238.3 678.7 286 675C333.7 671.3 381.3 663.7 428.8 666.8C476.3 670 523.7 684 571.2 691C618.7 698 666.3 698 714 690.5C761.7 683 809.3 668 857 660C904.7 652 952.3 651 976.2 650.5L1000 650L1000 801L976.2 801C952.3 801 904.7 801 857 801C809.3 801 761.7 801 714 801C666.3 801 618.7 801 571.2 801C523.7 801 476.3 801 428.8 801C381.3 801 333.7 801 286 801C238.3 801 190.7 801 143 801C95.3 801 47.7 801 23.8 801L0 801Z" fill="#d53867"></path><path d="M0 712L23.8 712.2C47.7 712.3 95.3 712.7 143 713.5C190.7 714.3 238.3 715.7 286 713.3C333.7 711 381.3 705 428.8 706.7C476.3 708.3 523.7 717.7 571.2 726.3C618.7 735 666.3 743 714 744.5C761.7 746 809.3 741 857 739.2C904.7 737.3 952.3 738.7 976.2 739.3L1000 740L1000 801L976.2 801C952.3 801 904.7 801 857 801C809.3 801 761.7 801 714 801C666.3 801 618.7 801 571.2 801C523.7 801 476.3 801 428.8 801C381.3 801 333.7 801 286 801C238.3 801 190.7 801 143 801C95.3 801 47.7 801 23.8 801L0 801Z" fill="#c62368"></path></svg>