<?xml version="1.0" encoding="UTF-8" standalone="no"?>
<!DOCTYPE svg PUBLIC "-//W3C//DTD SVG 1.1//EN"
 "http://www.w3.org/Graphics/SVG/1.1/DTD/svg11.dtd">
<!-- Generated by graphviz version 2.47.0 (20210316.0004)
 -->
<!-- Title: dependencies Pages: 1 -->
<svg width="910pt" height="284pt"
 viewBox="0.00 0.00 910.00 284.00" xmlns="http://www.w3.org/2000/svg" xmlns:xlink="http://www.w3.org/1999/xlink">
<g id="graph0" class="graph" transform="scale(1 1) rotate(0) translate(4 280)">
<title>dependencies</title>
<polygon fill="white" stroke="transparent" points="-4,4 -4,-280 906,-280 906,4 -4,4"/>
<text text-anchor="start" x="430.01" y="-42.4" font-family="Times-12" font-weight="bold" font-size="14.00">Legend</text>
<polygon fill="#ffffb3" stroke="transparent" points="217,-10 217,-30 237,-30 237,-10 217,-10"/>
<text text-anchor="start" x="240.63" y="-15.4" font-family="Times-12" font-size="14.00"> &#160;Declarations</text>
<polygon fill="#8dd3c7" stroke="transparent" points="330,-10 330,-30 350,-30 350,-10 330,-10"/>
<text text-anchor="start" x="353.73" y="-15.4" font-family="Times-12" font-size="14.00"> &#160;Module</text>
<polygon fill="#80b1d3" stroke="transparent" points="416,-10 416,-30 436,-30 436,-10 416,-10"/>
<text text-anchor="start" x="439.78" y="-15.4" font-family="Times-12" font-size="14.00"> &#160;Bootstrap</text>
<polygon fill="#fdb462" stroke="transparent" points="513,-10 513,-30 533,-30 533,-10 513,-10"/>
<text text-anchor="start" x="536.67" y="-15.4" font-family="Times-12" font-size="14.00"> &#160;Providers</text>
<polygon fill="#fb8072" stroke="transparent" points="609,-10 609,-30 629,-30 629,-10 609,-10"/>
<text text-anchor="start" x="632.73" y="-15.4" font-family="Times-12" font-size="14.00"> &#160;Exports</text>
<g id="clust1" class="cluster">
<title>cluster_AppModule</title>
<polygon fill="none" stroke="black" stroke-dasharray="1,5" points="8,-70 8,-268 894,-268 894,-70 8,-70"/>
</g>
<g id="clust2" class="cluster">
<title>cluster_AppModule_declarations</title>
<polygon fill="none" stroke="black" points="338,-78 338,-130 886,-130 886,-78 338,-78"/>
</g>
<g id="clust10" class="cluster">
<title>cluster_AppModule_providers</title>
<polygon fill="none" stroke="black" points="168,-78 168,-130 330,-130 330,-78 168,-78"/>
</g>
<g id="clust7" class="cluster">
<title>cluster_AppModule_imports</title>
<polygon fill="none" stroke="black" points="16,-78 16,-130 160,-130 160,-78 16,-78"/>
</g>
<g id="clust9" class="cluster">
<title>cluster_AppModule_bootstrap</title>
<polygon fill="none" stroke="black" points="434,-208 434,-260 558,-260 558,-208 434,-208"/>
</g>
<!-- AppComponent -->
<g id="node1" class="node">
<title>AppComponent</title>
<polygon fill="#ffffb3" stroke="black" points="877.94,-122 772.06,-122 772.06,-86 877.94,-86 877.94,-122"/>
<text text-anchor="middle" x="825" y="-99.8" font-family="Times,serif" font-size="14.00">AppComponent</text>
</g>
<!-- AppModule -->
<g id="node5" class="node">
<title>AppModule</title>
<polygon fill="#8dd3c7" stroke="black" points="537.66,-187 534.66,-191 513.66,-191 510.66,-187 454.34,-187 454.34,-151 537.66,-151 537.66,-187"/>
<text text-anchor="middle" x="496" y="-164.8" font-family="Times,serif" font-size="14.00">AppModule</text>
</g>
<!-- AppComponent&#45;&gt;AppModule -->
<g id="edge1" class="edge">
<title>AppComponent&#45;&gt;AppModule</title>
<path fill="none" stroke="black" d="M825,-122.28C825,-143.32 825,-175 825,-175 825,-175 547.67,-175 547.67,-175"/>
<polygon fill="black" stroke="black" points="547.67,-171.5 537.67,-175 547.67,-178.5 547.67,-171.5"/>
</g>
<!-- DataComponent -->
<g id="node2" class="node">
<title>DataComponent</title>
<polygon fill="#ffffb3" stroke="black" points="753.76,-122 646.24,-122 646.24,-86 753.76,-86 753.76,-122"/>
<text text-anchor="middle" x="700" y="-99.8" font-family="Times,serif" font-size="14.00">DataComponent</text>
</g>
<!-- DataComponent&#45;&gt;AppModule -->
<g id="edge2" class="edge">
<title>DataComponent&#45;&gt;AppModule</title>
<path fill="none" stroke="black" d="M700,-122.02C700,-139.37 700,-163 700,-163 700,-163 547.77,-163 547.77,-163"/>
<polygon fill="black" stroke="black" points="547.77,-159.5 537.77,-163 547.77,-166.5 547.77,-159.5"/>
</g>
<!-- LoginComponent -->
<g id="node3" class="node">
<title>LoginComponent</title>
<polygon fill="#ffffb3" stroke="black" points="628.28,-122 513.72,-122 513.72,-86 628.28,-86 628.28,-122"/>
<text text-anchor="middle" x="571" y="-99.8" font-family="Times,serif" font-size="14.00">LoginComponent</text>
</g>
<!-- LoginComponent&#45;&gt;AppModule -->
<g id="edge3" class="edge">
<title>LoginComponent&#45;&gt;AppModule</title>
<path fill="none" stroke="black" d="M525.72,-122.11C525.72,-122.11 525.72,-140.99 525.72,-140.99"/>
<polygon fill="black" stroke="black" points="522.22,-140.99 525.72,-150.99 529.22,-140.99 522.22,-140.99"/>
</g>
<!-- RegistrationComponent -->
<g id="node4" class="node">
<title>RegistrationComponent</title>
<polygon fill="#ffffb3" stroke="black" points="495.77,-122 346.23,-122 346.23,-86 495.77,-86 495.77,-122"/>
<text text-anchor="middle" x="421" y="-99.8" font-family="Times,serif" font-size="14.00">RegistrationComponent</text>
</g>
<!-- RegistrationComponent&#45;&gt;AppModule -->
<g id="edge4" class="edge">
<title>RegistrationComponent&#45;&gt;AppModule</title>
<path fill="none" stroke="black" d="M475.03,-122.11C475.03,-122.11 475.03,-140.99 475.03,-140.99"/>
<polygon fill="black" stroke="black" points="471.53,-140.99 475.03,-150.99 478.53,-140.99 471.53,-140.99"/>
</g>
<!-- AppComponent  -->
<g id="node7" class="node">
<title>AppComponent </title>
<polygon fill="#80b1d3" stroke="black" points="550.44,-252 441.56,-252 441.56,-216 550.44,-216 550.44,-252"/>
<text text-anchor="middle" x="496" y="-229.8" font-family="Times,serif" font-size="14.00">AppComponent </text>
</g>
<!-- AppModule&#45;&gt;AppComponent  -->
<g id="edge6" class="edge">
<title>AppModule&#45;&gt;AppComponent </title>
<path fill="none" stroke="black" stroke-dasharray="1,5" d="M496,-187.11C496,-187.11 496,-205.99 496,-205.99"/>
<polygon fill="black" stroke="black" points="492.5,-205.99 496,-215.99 499.5,-205.99 492.5,-205.99"/>
</g>
<!-- AppRoutingModule -->
<g id="node6" class="node">
<title>AppRoutingModule</title>
<polygon fill="#8dd3c7" stroke="black" points="152.27,-122 149.27,-126 128.27,-126 125.27,-122 23.73,-122 23.73,-86 152.27,-86 152.27,-122"/>
<text text-anchor="middle" x="88" y="-99.8" font-family="Times,serif" font-size="14.00">AppRoutingModule</text>
</g>
<!-- AppRoutingModule&#45;&gt;AppModule -->
<g id="edge5" class="edge">
<title>AppRoutingModule&#45;&gt;AppModule</title>
<path fill="none" stroke="black" d="M88,-122.28C88,-143.32 88,-175 88,-175 88,-175 444.25,-175 444.25,-175"/>
<polygon fill="black" stroke="black" points="444.25,-178.5 454.25,-175 444.25,-171.5 444.25,-178.5"/>
</g>
<!-- AuthInterceptor -->
<g id="node8" class="node">
<title>AuthInterceptor</title>
<ellipse fill="#fdb462" stroke="black" cx="249" cy="-104" rx="72.91" ry="18"/>
<text text-anchor="middle" x="249" y="-99.8" font-family="Times,serif" font-size="14.00">AuthInterceptor</text>
</g>
<!-- AuthInterceptor&#45;&gt;AppModule -->
<g id="edge7" class="edge">
<title>AuthInterceptor&#45;&gt;AppModule</title>
<path fill="none" stroke="black" d="M249,-122.02C249,-139.37 249,-163 249,-163 249,-163 444.1,-163 444.1,-163"/>
<polygon fill="black" stroke="black" points="444.1,-166.5 454.1,-163 444.1,-159.5 444.1,-166.5"/>
</g>
</g>
</svg>
