<?xml version="1.0" encoding="UTF-8" standalone="no"?>
<!DOCTYPE svg PUBLIC "-//W3C//DTD SVG 1.1//EN"
 "http://www.w3.org/Graphics/SVG/1.1/DTD/svg11.dtd">
<!-- Generated by graphviz version 2.47.0 (20210316.0004)
 -->
<!-- Title: dependencies Pages: 1 -->
<svg width="2403pt" height="284pt"
 viewBox="0.00 0.00 2403.00 284.00" xmlns="http://www.w3.org/2000/svg" xmlns:xlink="http://www.w3.org/1999/xlink">
<g id="graph0" class="graph" transform="scale(1 1) rotate(0) translate(4 280)">
<title>dependencies</title>
<polygon fill="white" stroke="transparent" points="-4,4 -4,-280 2399,-280 2399,4 -4,4"/>
<text text-anchor="start" x="1176.51" y="-42.4" font-family="Times-12" font-weight="bold" font-size="14.00">Legend</text>
<polygon fill="#ffffb3" stroke="transparent" points="963.5,-10 963.5,-30 983.5,-30 983.5,-10 963.5,-10"/>
<text text-anchor="start" x="987.13" y="-15.4" font-family="Times-12" font-size="14.00"> &#160;Declarations</text>
<polygon fill="#8dd3c7" stroke="transparent" points="1076.5,-10 1076.5,-30 1096.5,-30 1096.5,-10 1076.5,-10"/>
<text text-anchor="start" x="1100.23" y="-15.4" font-family="Times-12" font-size="14.00"> &#160;Module</text>
<polygon fill="#80b1d3" stroke="transparent" points="1162.5,-10 1162.5,-30 1182.5,-30 1182.5,-10 1162.5,-10"/>
<text text-anchor="start" x="1186.28" y="-15.4" font-family="Times-12" font-size="14.00"> &#160;Bootstrap</text>
<polygon fill="#fdb462" stroke="transparent" points="1259.5,-10 1259.5,-30 1279.5,-30 1279.5,-10 1259.5,-10"/>
<text text-anchor="start" x="1283.17" y="-15.4" font-family="Times-12" font-size="14.00"> &#160;Providers</text>
<polygon fill="#fb8072" stroke="transparent" points="1355.5,-10 1355.5,-30 1375.5,-30 1375.5,-10 1355.5,-10"/>
<text text-anchor="start" x="1379.23" y="-15.4" font-family="Times-12" font-size="14.00"> &#160;Exports</text>
<g id="clust1" class="cluster">
<title>cluster_HomeModule</title>
<polygon fill="none" stroke="black" stroke-dasharray="1,5" points="8,-70 8,-268 2387,-268 2387,-70 8,-70"/>
</g>
<g id="clust2" class="cluster">
<title>cluster_HomeModule_declarations</title>
<polygon fill="none" stroke="black" points="178,-78 178,-130 2379,-130 2379,-78 178,-78"/>
</g>
<g id="clust17" class="cluster">
<title>cluster_HomeModule_exports</title>
<polygon fill="none" stroke="black" points="1050,-208 1050,-260 1186,-260 1186,-208 1050,-208"/>
</g>
<g id="clust16" class="cluster">
<title>cluster_HomeModule_imports</title>
<polygon fill="none" stroke="black" points="16,-78 16,-130 170,-130 170,-78 16,-78"/>
</g>
<!-- AssignmentLogicDialogComponent -->
<g id="node1" class="node">
<title>AssignmentLogicDialogComponent</title>
<polygon fill="#ffffb3" stroke="black" points="2371.47,-122 2152.53,-122 2152.53,-86 2371.47,-86 2371.47,-122"/>
<text text-anchor="middle" x="2262" y="-99.8" font-family="Times,serif" font-size="14.00">AssignmentLogicDialogComponent</text>
</g>
<!-- HomeModule -->
<g id="node14" class="node">
<title>HomeModule</title>
<polygon fill="#8dd3c7" stroke="black" points="1164.76,-187 1161.76,-191 1140.76,-191 1137.76,-187 1071.24,-187 1071.24,-151 1164.76,-151 1164.76,-187"/>
<text text-anchor="middle" x="1118" y="-164.8" font-family="Times,serif" font-size="14.00">HomeModule</text>
</g>
<!-- AssignmentLogicDialogComponent&#45;&gt;HomeModule -->
<g id="edge1" class="edge">
<title>AssignmentLogicDialogComponent&#45;&gt;HomeModule</title>
<path fill="none" stroke="black" d="M2262,-122.09C2262,-145.13 2262,-182 2262,-182 2262,-182 1174.98,-182 1174.98,-182"/>
<polygon fill="black" stroke="black" points="1174.98,-178.5 1164.98,-182 1174.98,-185.5 1174.98,-178.5"/>
</g>
<!-- ClassComponent -->
<g id="node2" class="node">
<title>ClassComponent</title>
<polygon fill="#ffffb3" stroke="black" points="2134.66,-122 2023.34,-122 2023.34,-86 2134.66,-86 2134.66,-122"/>
<text text-anchor="middle" x="2079" y="-99.8" font-family="Times,serif" font-size="14.00">ClassComponent</text>
</g>
<!-- ClassComponent&#45;&gt;HomeModule -->
<g id="edge2" class="edge">
<title>ClassComponent&#45;&gt;HomeModule</title>
<path fill="none" stroke="black" d="M2079,-122.04C2079,-143.66 2079,-177 2079,-177 2079,-177 1175,-177 1175,-177"/>
<polygon fill="black" stroke="black" points="1175,-173.5 1165,-177 1175,-180.5 1175,-173.5"/>
</g>
<!-- ColumnSelectorDialogComponent -->
<g id="node3" class="node">
<title>ColumnSelectorDialogComponent</title>
<polygon fill="#ffffb3" stroke="black" points="2005.42,-122 1794.58,-122 1794.58,-86 2005.42,-86 2005.42,-122"/>
<text text-anchor="middle" x="1900" y="-99.8" font-family="Times,serif" font-size="14.00">ColumnSelectorDialogComponent</text>
</g>
<!-- ColumnSelectorDialogComponent&#45;&gt;HomeModule -->
<g id="edge3" class="edge">
<title>ColumnSelectorDialogComponent&#45;&gt;HomeModule</title>
<path fill="none" stroke="black" d="M1900,-122.22C1900,-142.37 1900,-172 1900,-172 1900,-172 1174.87,-172 1174.87,-172"/>
<polygon fill="black" stroke="black" points="1174.87,-168.5 1164.87,-172 1174.87,-175.5 1174.87,-168.5"/>
</g>
<!-- ConflictCardComponent -->
<g id="node4" class="node">
<title>ConflictCardComponent</title>
<polygon fill="#ffffb3" stroke="black" points="1777.43,-122 1622.57,-122 1622.57,-86 1777.43,-86 1777.43,-122"/>
<text text-anchor="middle" x="1700" y="-99.8" font-family="Times,serif" font-size="14.00">ConflictCardComponent</text>
</g>
<!-- ConflictCardComponent&#45;&gt;HomeModule -->
<g id="edge4" class="edge">
<title>ConflictCardComponent&#45;&gt;HomeModule</title>
<path fill="none" stroke="black" d="M1700,-122.22C1700,-140.83 1700,-167 1700,-167 1700,-167 1175.13,-167 1175.13,-167"/>
<polygon fill="black" stroke="black" points="1175.13,-163.5 1165.13,-167 1175.13,-170.5 1175.13,-163.5"/>
</g>
<!-- ConflictManagerComponent -->
<g id="node5" class="node">
<title>ConflictManagerComponent</title>
<polygon fill="#ffffb3" stroke="black" points="1604.47,-122 1427.53,-122 1427.53,-86 1604.47,-86 1604.47,-122"/>
<text text-anchor="middle" x="1516" y="-99.8" font-family="Times,serif" font-size="14.00">ConflictManagerComponent</text>
</g>
<!-- ConflictManagerComponent&#45;&gt;HomeModule -->
<g id="edge5" class="edge">
<title>ConflictManagerComponent&#45;&gt;HomeModule</title>
<path fill="none" stroke="black" d="M1516,-122.03C1516,-139.06 1516,-162 1516,-162 1516,-162 1174.83,-162 1174.83,-162"/>
<polygon fill="black" stroke="black" points="1174.83,-158.5 1164.83,-162 1174.83,-165.5 1174.83,-158.5"/>
</g>
<!-- DetailsComponent -->
<g id="node6" class="node">
<title>DetailsComponent</title>
<polygon fill="#ffffb3" stroke="black" points="1409.48,-122 1288.52,-122 1288.52,-86 1409.48,-86 1409.48,-122"/>
<text text-anchor="middle" x="1349" y="-99.8" font-family="Times,serif" font-size="14.00">DetailsComponent</text>
</g>
<!-- DetailsComponent&#45;&gt;HomeModule -->
<g id="edge6" class="edge">
<title>DetailsComponent&#45;&gt;HomeModule</title>
<path fill="none" stroke="black" d="M1349,-122.24C1349,-137.57 1349,-157 1349,-157 1349,-157 1175.02,-157 1175.02,-157"/>
<polygon fill="black" stroke="black" points="1175.02,-153.5 1165.02,-157 1175.02,-160.5 1175.02,-153.5"/>
</g>
<!-- FileManagerComponent -->
<g id="node7" class="node">
<title>FileManagerComponent</title>
<polygon fill="#ffffb3" stroke="black" points="1270.36,-122 1117.64,-122 1117.64,-86 1270.36,-86 1270.36,-122"/>
<text text-anchor="middle" x="1194" y="-99.8" font-family="Times,serif" font-size="14.00">FileManagerComponent</text>
</g>
<!-- FileManagerComponent&#45;&gt;HomeModule -->
<g id="edge7" class="edge">
<title>FileManagerComponent&#45;&gt;HomeModule</title>
<path fill="none" stroke="black" d="M1141.23,-122.11C1141.23,-122.11 1141.23,-140.99 1141.23,-140.99"/>
<polygon fill="black" stroke="black" points="1137.73,-140.99 1141.23,-150.99 1144.73,-140.99 1137.73,-140.99"/>
</g>
<!-- HomeComponent -->
<g id="node8" class="node">
<title>HomeComponent</title>
<polygon fill="#ffffb3" stroke="black" points="1099.55,-122 984.45,-122 984.45,-86 1099.55,-86 1099.55,-122"/>
<text text-anchor="middle" x="1042" y="-99.8" font-family="Times,serif" font-size="14.00">HomeComponent</text>
</g>
<!-- HomeComponent&#45;&gt;HomeModule -->
<g id="edge8" class="edge">
<title>HomeComponent&#45;&gt;HomeModule</title>
<path fill="none" stroke="black" d="M1085.45,-122.11C1085.45,-122.11 1085.45,-140.99 1085.45,-140.99"/>
<polygon fill="black" stroke="black" points="1081.95,-140.99 1085.45,-150.99 1088.95,-140.99 1081.95,-140.99"/>
</g>
<!-- ProfileComponent -->
<g id="node9" class="node">
<title>ProfileComponent</title>
<polygon fill="#ffffb3" stroke="black" points="966.93,-122 847.07,-122 847.07,-86 966.93,-86 966.93,-122"/>
<text text-anchor="middle" x="907" y="-99.8" font-family="Times,serif" font-size="14.00">ProfileComponent</text>
</g>
<!-- ProfileComponent&#45;&gt;HomeModule -->
<g id="edge9" class="edge">
<title>ProfileComponent&#45;&gt;HomeModule</title>
<path fill="none" stroke="black" d="M907,-122.24C907,-137.57 907,-157 907,-157 907,-157 1061.17,-157 1061.17,-157"/>
<polygon fill="black" stroke="black" points="1061.17,-160.5 1071.17,-157 1061.17,-153.5 1061.17,-160.5"/>
</g>
<!-- SectionComponent -->
<g id="node10" class="node">
<title>SectionComponent</title>
<polygon fill="#ffffb3" stroke="black" points="829.83,-122 706.17,-122 706.17,-86 829.83,-86 829.83,-122"/>
<text text-anchor="middle" x="768" y="-99.8" font-family="Times,serif" font-size="14.00">SectionComponent</text>
</g>
<!-- SectionComponent&#45;&gt;HomeModule -->
<g id="edge10" class="edge">
<title>SectionComponent&#45;&gt;HomeModule</title>
<path fill="none" stroke="black" d="M768,-122.03C768,-139.06 768,-162 768,-162 768,-162 1061.16,-162 1061.16,-162"/>
<polygon fill="black" stroke="black" points="1061.16,-165.5 1071.16,-162 1061.16,-158.5 1061.16,-165.5"/>
</g>
<!-- SectionRowComponent -->
<g id="node11" class="node">
<title>SectionRowComponent</title>
<polygon fill="#ffffb3" stroke="black" points="687.77,-122 538.23,-122 538.23,-86 687.77,-86 687.77,-122"/>
<text text-anchor="middle" x="613" y="-99.8" font-family="Times,serif" font-size="14.00">SectionRowComponent</text>
</g>
<!-- SectionRowComponent&#45;&gt;HomeModule -->
<g id="edge11" class="edge">
<title>SectionRowComponent&#45;&gt;HomeModule</title>
<path fill="none" stroke="black" d="M613,-122.22C613,-140.83 613,-167 613,-167 613,-167 1060.94,-167 1060.94,-167"/>
<polygon fill="black" stroke="black" points="1060.94,-170.5 1070.94,-167 1060.94,-163.5 1060.94,-170.5"/>
</g>
<!-- TrainingDataDialogComponent -->
<g id="node12" class="node">
<title>TrainingDataDialogComponent</title>
<polygon fill="#ffffb3" stroke="black" points="520.07,-122 325.93,-122 325.93,-86 520.07,-86 520.07,-122"/>
<text text-anchor="middle" x="423" y="-99.8" font-family="Times,serif" font-size="14.00">TrainingDataDialogComponent</text>
</g>
<!-- TrainingDataDialogComponent&#45;&gt;HomeModule -->
<g id="edge12" class="edge">
<title>TrainingDataDialogComponent&#45;&gt;HomeModule</title>
<path fill="none" stroke="black" d="M423,-122.22C423,-142.37 423,-172 423,-172 423,-172 1061.05,-172 1061.05,-172"/>
<polygon fill="black" stroke="black" points="1061.05,-175.5 1071.05,-172 1061.05,-168.5 1061.05,-175.5"/>
</g>
<!-- UploadComponent -->
<g id="node13" class="node">
<title>UploadComponent</title>
<polygon fill="#ffffb3" stroke="black" points="308.05,-122 185.95,-122 185.95,-86 308.05,-86 308.05,-122"/>
<text text-anchor="middle" x="247" y="-99.8" font-family="Times,serif" font-size="14.00">UploadComponent</text>
</g>
<!-- UploadComponent&#45;&gt;HomeModule -->
<g id="edge13" class="edge">
<title>UploadComponent&#45;&gt;HomeModule</title>
<path fill="none" stroke="black" d="M247,-122.04C247,-143.66 247,-177 247,-177 247,-177 1061.17,-177 1061.17,-177"/>
<polygon fill="black" stroke="black" points="1061.17,-180.5 1071.17,-177 1061.17,-173.5 1061.17,-180.5"/>
</g>
<!-- HomeComponent  -->
<g id="node16" class="node">
<title>HomeComponent </title>
<polygon fill="#fb8072" stroke="black" points="1177.54,-252 1058.46,-252 1058.46,-216 1177.54,-216 1177.54,-252"/>
<text text-anchor="middle" x="1118" y="-229.8" font-family="Times,serif" font-size="14.00">HomeComponent </text>
</g>
<!-- HomeModule&#45;&gt;HomeComponent  -->
<g id="edge15" class="edge">
<title>HomeModule&#45;&gt;HomeComponent </title>
<path fill="none" stroke="black" stroke-dasharray="5,2" d="M1118,-187.11C1118,-187.11 1118,-205.99 1118,-205.99"/>
<polygon fill="black" stroke="black" points="1114.5,-205.99 1118,-215.99 1121.5,-205.99 1114.5,-205.99"/>
</g>
<!-- HomeRoutingModule -->
<g id="node15" class="node">
<title>HomeRoutingModule</title>
<polygon fill="#8dd3c7" stroke="black" points="162.38,-122 159.38,-126 138.38,-126 135.38,-122 23.62,-122 23.62,-86 162.38,-86 162.38,-122"/>
<text text-anchor="middle" x="93" y="-99.8" font-family="Times,serif" font-size="14.00">HomeRoutingModule</text>
</g>
<!-- HomeRoutingModule&#45;&gt;HomeModule -->
<g id="edge14" class="edge">
<title>HomeRoutingModule&#45;&gt;HomeModule</title>
<path fill="none" stroke="black" d="M93,-122.09C93,-145.13 93,-182 93,-182 93,-182 1060.96,-182 1060.96,-182"/>
<polygon fill="black" stroke="black" points="1060.96,-185.5 1070.96,-182 1060.96,-178.5 1060.96,-185.5"/>
</g>
</g>
</svg>
